<?xml version="1.0" encoding="UTF-8" standalone="no"?>
<!DOCTYPE svg PUBLIC "-//W3C//DTD SVG 1.1//EN" "http://www.w3.org/Graphics/SVG/1.1/DTD/svg11.dtd">
<svg width="100%" height="100%" viewBox="0 0 680 293" version="1.1" xmlns="http://www.w3.org/2000/svg" xmlns:xlink="http://www.w3.org/1999/xlink" xml:space="preserve" xmlns:serif="http://www.serif.com/" style="fill-rule:evenodd;clip-rule:evenodd;stroke-linecap:round;stroke-linejoin:round;stroke-miterlimit:1.5;">
    <g transform="matrix(1,0,0,1,-236,-78.5447)">
        <g transform="matrix(0.29235,0,0,0.355769,304.338,-82.8038)">
            <g transform="matrix(427.57,0,0,351.351,269.978,940.576)">
                <path d="M0.074,-0.75L0.107,-0.75C0.176,-0.75 0.235,-0.726 0.284,-0.679C0.333,-0.631 0.357,-0.575 0.357,-0.51C0.357,-0.445 0.332,-0.39 0.281,-0.343C0.231,-0.296 0.176,-0.273 0.115,-0.273L0.107,-0.273L0.107,0L0.074,0L0.074,-0.75ZM0.107,-0.301L0.115,-0.301C0.171,-0.301 0.22,-0.322 0.262,-0.363C0.303,-0.404 0.324,-0.453 0.324,-0.51C0.324,-0.567 0.303,-0.616 0.261,-0.658C0.218,-0.7 0.17,-0.721 0.115,-0.721L0.107,-0.721L0.107,-0.301Z" style="fill-rule:nonzero;"/>
            </g>
            <g transform="matrix(427.57,0,0,351.351,438.013,940.576)">
                <path d="M0.105,-0.449L0.105,0L0.073,0L0.073,-0.449L0.105,-0.449ZM0.089,-0.559C0.07,-0.559 0.06,-0.568 0.06,-0.586C0.06,-0.604 0.07,-0.613 0.089,-0.613C0.108,-0.613 0.118,-0.604 0.118,-0.586C0.118,-0.568 0.108,-0.559 0.089,-0.559Z" style="fill-rule:nonzero;"/>
            </g>
            <g transform="matrix(427.57,0,0,351.351,553.029,940.576)">
                <path d="M0.509,-0.45L0.509,0L0.477,0L0.477,-0.112C0.458,-0.074 0.43,-0.044 0.393,-0.022C0.356,0 0.316,0.011 0.273,0.011C0.208,0.011 0.152,-0.012 0.105,-0.059C0.058,-0.105 0.035,-0.16 0.035,-0.225C0.035,-0.29 0.058,-0.345 0.105,-0.392C0.152,-0.438 0.208,-0.461 0.273,-0.461C0.316,-0.461 0.357,-0.45 0.396,-0.427C0.435,-0.404 0.462,-0.374 0.477,-0.337L0.477,-0.45L0.509,-0.45ZM0.067,-0.224C0.067,-0.168 0.087,-0.119 0.129,-0.079C0.17,-0.038 0.218,-0.017 0.275,-0.017C0.331,-0.017 0.379,-0.038 0.419,-0.079C0.459,-0.119 0.479,-0.168 0.479,-0.225C0.479,-0.281 0.459,-0.33 0.419,-0.371C0.378,-0.412 0.33,-0.433 0.274,-0.433C0.218,-0.433 0.17,-0.412 0.129,-0.371C0.087,-0.329 0.067,-0.28 0.067,-0.224Z" style="fill-rule:nonzero;"/>
            </g>
            <g transform="matrix(427.57,0,0,351.351,821.543,940.576)">
                <path d="M0.478,-0.45L0.51,-0.45L0.51,-0.042C0.51,0.035 0.489,0.096 0.446,0.141C0.403,0.186 0.347,0.208 0.278,0.208C0.24,0.208 0.203,0.199 0.167,0.182C0.131,0.165 0.103,0.142 0.083,0.114L0.083,0.068C0.1,0.1 0.128,0.127 0.165,0.148C0.202,0.169 0.239,0.18 0.278,0.18C0.337,0.18 0.385,0.16 0.422,0.12C0.459,0.081 0.478,0.027 0.478,-0.042L0.478,-0.109C0.46,-0.072 0.432,-0.043 0.393,-0.021C0.354,0.001 0.314,0.012 0.273,0.012C0.208,0.012 0.152,-0.011 0.105,-0.058C0.058,-0.104 0.035,-0.159 0.035,-0.224C0.035,-0.289 0.058,-0.344 0.105,-0.391C0.152,-0.437 0.208,-0.46 0.273,-0.46C0.316,-0.46 0.357,-0.449 0.395,-0.428C0.432,-0.406 0.46,-0.376 0.478,-0.338L0.478,-0.45ZM0.067,-0.224C0.067,-0.167 0.087,-0.118 0.129,-0.078C0.17,-0.037 0.218,-0.016 0.275,-0.016C0.331,-0.016 0.379,-0.037 0.419,-0.078C0.459,-0.118 0.479,-0.167 0.479,-0.224C0.479,-0.281 0.459,-0.33 0.419,-0.371C0.379,-0.411 0.331,-0.432 0.275,-0.432C0.218,-0.432 0.17,-0.411 0.129,-0.371C0.087,-0.33 0.067,-0.281 0.067,-0.224Z" style="fill-rule:nonzero;"/>
            </g>
            <g transform="matrix(427.57,0,0,351.351,1090.48,940.576)">
                <path d="M0.269,0.011C0.205,0.011 0.15,-0.013 0.104,-0.061C0.058,-0.108 0.035,-0.164 0.035,-0.227C0.035,-0.29 0.058,-0.345 0.105,-0.392C0.152,-0.438 0.208,-0.461 0.274,-0.461C0.339,-0.461 0.395,-0.438 0.442,-0.392C0.488,-0.345 0.511,-0.29 0.511,-0.227C0.511,-0.163 0.488,-0.107 0.443,-0.06C0.398,-0.013 0.343,0.011 0.278,0.011L0.269,0.011ZM0.479,-0.225C0.479,-0.281 0.459,-0.33 0.419,-0.371C0.378,-0.412 0.33,-0.433 0.274,-0.433C0.218,-0.433 0.17,-0.412 0.129,-0.371C0.087,-0.329 0.067,-0.28 0.067,-0.224C0.067,-0.168 0.087,-0.119 0.129,-0.079C0.17,-0.038 0.218,-0.017 0.275,-0.017C0.331,-0.017 0.379,-0.038 0.419,-0.079C0.459,-0.119 0.479,-0.168 0.479,-0.225Z" style="fill-rule:nonzero;"/>
            </g>
        </g>
        <g transform="matrix(0.9,0,0,0.794393,-219.824,-403.219)">
            <rect x="588.487" y="684.891" width="172.213" height="167.517" style="fill:none;stroke:black;stroke-width:1.18px;"/>
        </g>
        <g transform="matrix(1,0,0,0.961498,-218.398,-308.1)">
            <g transform="matrix(0.838245,0,0,1,167.832,103.328)">
                <rect x="443.671" y="382.734" width="21.135" height="96.283"/>
            </g>
            <g transform="matrix(0.870485,0,0,1,157.813,103.328)">
                <rect x="489.856" y="382.734" width="20.352" height="96.283"/>
            </g>
            <g transform="matrix(0.870485,0,0,0.5,135.46,342.837)">
                <rect x="489.856" y="382.734" width="20.352" height="96.283"/>
            </g>
        </g>
        <g transform="matrix(1,0,0,1,170.648,-170.649)">
            <text x="447.038px" y="471.509px" style="font-family:'PoiretOne-Regular', 'Poiret One';font-size:50px;">O<tspan x="493.488px 522.638px 543.088px 558.088px 586.738px 614.438px 634.888px 666.338px " y="471.509px 471.509px 471.509px 471.509px 471.509px 471.509px 471.509px 471.509px ">n the go</tspan></text>
        </g>
    </g>
</svg>
