<?xml version="1.0" encoding="UTF-8" standalone="no"?>
<!DOCTYPE svg PUBLIC "-//W3C//DTD SVG 1.1//EN" "http://www.w3.org/Graphics/SVG/1.1/DTD/svg11.dtd">
<svg width="100%" height="100%" viewBox="0 0 186 164" version="1.1" xmlns="http://www.w3.org/2000/svg" xmlns:xlink="http://www.w3.org/1999/xlink" xml:space="preserve" xmlns:serif="http://www.serif.com/" style="fill-rule:evenodd;clip-rule:evenodd;stroke-linecap:round;stroke-linejoin:round;stroke-miterlimit:1.5;">
    <g transform="matrix(0.29235,0,0,0.355769,10.338,-210.804)">
        <g transform="matrix(427.57,0,0,351.351,269.978,940.576)">
            <path d="M0.074,-0.75L0.107,-0.75C0.176,-0.75 0.235,-0.726 0.284,-0.679C0.333,-0.631 0.357,-0.575 0.357,-0.51C0.357,-0.445 0.332,-0.39 0.281,-0.343C0.231,-0.296 0.176,-0.273 0.115,-0.273L0.107,-0.273L0.107,0L0.074,0L0.074,-0.75ZM0.107,-0.301L0.115,-0.301C0.171,-0.301 0.22,-0.322 0.262,-0.363C0.303,-0.404 0.324,-0.453 0.324,-0.51C0.324,-0.567 0.303,-0.616 0.261,-0.658C0.218,-0.7 0.17,-0.721 0.115,-0.721L0.107,-0.721L0.107,-0.301Z" style="fill:white;fill-rule:nonzero;"/>
        </g>
        <g transform="matrix(427.57,0,0,351.351,438.013,940.576)">
            <path d="M0.105,-0.449L0.105,0L0.073,0L0.073,-0.449L0.105,-0.449ZM0.089,-0.559C0.07,-0.559 0.06,-0.568 0.06,-0.586C0.06,-0.604 0.07,-0.613 0.089,-0.613C0.108,-0.613 0.118,-0.604 0.118,-0.586C0.118,-0.568 0.108,-0.559 0.089,-0.559Z" style="fill:white;fill-rule:nonzero;"/>
        </g>
    </g>
    <g transform="matrix(0.9,0,0,0.794393,-513.824,-531.219)">
        <rect x="588.487" y="684.891" width="172.213" height="167.517" style="fill:none;stroke:white;stroke-width:1.18px;"/>
    </g>
    <g transform="matrix(1,0,0,0.961498,-512.398,-436.1)">
        <g transform="matrix(0.838245,0,0,1,167.832,103.328)">
            <rect x="443.671" y="382.734" width="21.135" height="96.283" style="fill:white;"/>
        </g>
        <g transform="matrix(0.870485,0,0,1,157.813,103.328)">
            <rect x="489.856" y="382.734" width="20.352" height="96.283" style="fill:white;"/>
        </g>
        <g transform="matrix(0.870485,0,0,0.5,135.46,342.837)">
            <rect x="489.856" y="382.734" width="20.352" height="96.283" style="fill:white;"/>
        </g>
    </g>
    <g transform="matrix(1,0,0,1,-294,-128)">
        <g transform="matrix(0.9,0,0,0.794393,-219.824,-403.219)">
            <rect x="588.487" y="684.891" width="172.213" height="167.517" style="fill:none;stroke:white;stroke-width:1.18px;"/>
        </g>
        <g transform="matrix(1,0,0,0.961498,-218.398,-308.1)">
            <g transform="matrix(0.838245,0,0,1,167.832,103.328)">
                <rect x="443.671" y="382.734" width="21.135" height="96.283" style="fill:white;"/>
            </g>
            <g transform="matrix(0.870485,0,0,1,157.813,103.328)">
                <rect x="489.856" y="382.734" width="20.352" height="96.283" style="fill:white;"/>
            </g>
            <g transform="matrix(0.870485,0,0,0.5,135.46,342.837)">
                <rect x="489.856" y="382.734" width="20.352" height="96.283" style="fill:white;"/>
            </g>
        </g>
    </g>
</svg>
